<svg xmlns="http://www.w3.org/2000/svg" width="189" height="27" viewBox="0 0 189 27">
    <g fill="none" fill-rule="nonzero">
        <path fill="#FFF" d="M183.058 22.739v-6.864c0-1.4.293-2.342.879-2.83.585-.488 1.561-.716 2.863-.716h1.269v-3.09h-1.074c-.976 0-1.822.13-2.505.422a4.054 4.054 0 0 0-1.66 1.237l-.65-1.66h-2.44v13.5h3.318zM171.28 11.743c.944 0 1.66.26 2.148.814.488.553.748 1.268.813 2.147h-6.117c.065-.911.326-1.627.814-2.147.488-.553 1.204-.814 2.147-.814h.195zm2.766 6.93c-.228.487-.553.878-.976 1.138-.423.293-.944.423-1.627.423h-.228c-1.008 0-1.757-.293-2.277-.846-.52-.553-.814-1.301-.879-2.18h9.469v-1.366c0-2.114-.553-3.806-1.66-5.042-1.106-1.269-2.635-1.887-4.555-1.887h-.228c-1.92 0-3.449.618-4.588 1.887-1.138 1.236-1.692 2.863-1.692 4.847v.878c0 .976.163 1.855.456 2.668a5.877 5.877 0 0 0 1.269 2.082 5.83 5.83 0 0 0 2.017 1.366c.814.325 1.692.488 2.7.488h.229c1.269 0 2.342-.26 3.253-.748s1.66-1.236 2.213-2.245l-2.896-1.464zm-20.271 4.066v-7.873c.033-.91.26-1.659.716-2.244.455-.586 1.139-.879 1.985-.879h.325c.748 0 1.334.228 1.757.716.456.455.65 1.236.65 2.31v8.002h3.32v-8.588c0-1.594-.423-2.863-1.302-3.838-.878-.976-2.017-1.464-3.481-1.464h-.39c-.717 0-1.4.13-2.018.423a5.332 5.332 0 0 0-1.627 1.17V3.84h-3.319v18.9h3.384zm-8.688-2.96c-.227-.196-.325-.554-.325-1.074v-6.799h3.254V9.239h-3.254v-2.96h-2.83l-.359 2.96h-2.212v2.667h2.115v6.831c0 1.236.293 2.212.878 2.928.586.716 1.595 1.074 2.994 1.074h2.635V20.07h-1.92c-.455 0-.78-.098-.976-.293zm-13.828.52c-.683 0-1.204-.13-1.562-.39-.358-.26-.553-.651-.553-1.14v-.097c0-.488.195-.91.618-1.236.39-.325 1.106-.488 2.148-.488h2.472v.488c0 .976-.26 1.692-.78 2.147-.521.456-1.237.716-2.083.716h-.26zm-.65 2.797c.878 0 1.626-.162 2.31-.488.683-.325 1.236-.813 1.691-1.496l.553 1.66h2.506v-8.85c0-1.658-.488-2.927-1.464-3.773-.977-.845-2.343-1.268-4.068-1.268h-.325c-1.562 0-2.798.325-3.71.943-.91.65-1.496 1.431-1.756 2.342l2.928 1.204c.163-.456.456-.813.846-1.139.39-.292.944-.455 1.627-.455h.325c.781 0 1.367.195 1.725.553.39.39.553.91.553 1.594v.683h-2.408c-1.985 0-3.481.39-4.523 1.171-1.04.78-1.561 1.822-1.561 3.09v.196c0 1.268.39 2.244 1.17 2.992.782.716 1.888 1.106 3.32 1.106h.26v-.065zm-12.495-11.353c.943 0 1.659.26 2.147.814.488.553.748 1.268.813 2.147h-6.117c.065-.911.326-1.627.814-2.147.488-.553 1.204-.814 2.147-.814h.196zm2.765 6.93c-.228.487-.553.878-.976 1.138-.423.293-.943.423-1.627.423h-.228c-1.008 0-1.757-.293-2.277-.846-.52-.553-.814-1.301-.879-2.18h9.469v-1.366c0-2.114-.553-3.806-1.66-5.042-1.106-1.269-2.635-1.887-4.555-1.887h-.26c-1.92 0-3.45.618-4.588 1.887-1.139 1.236-1.692 2.863-1.692 4.847v.878c0 .976.163 1.855.455 2.668a5.877 5.877 0 0 0 1.27 2.082 5.83 5.83 0 0 0 2.017 1.366c.813.325 1.692.488 2.7.488h.228c1.27 0 2.343-.26 3.254-.748s1.66-1.236 2.213-2.245l-2.864-1.464zM95.76 22.738l3.97-13.76 3.774 13.76h3.026l5.434-18.673V3.84h-3.254l-3.58 13.37-3.513-13.37h-3.58L94.36 17.436 90.878 3.84h-3.416v.227l5.206 18.673h3.091zm-21.312-13.5v8.555c0 1.594.423 2.863 1.301 3.839.879.975 2.018 1.463 3.482 1.463h.358c.813 0 1.561-.162 2.212-.488.684-.325 1.237-.813 1.692-1.43l.553 1.56h2.473v-13.5h-3.286v7.873c-.033.91-.26 1.659-.748 2.244-.489.586-1.14.879-2.018.879h-.325c-.716 0-1.302-.228-1.757-.716-.456-.455-.684-1.236-.684-2.31V9.206h-3.253v.033zm-3.645.553c-.91-.586-2.082-.879-3.546-.879h-.228c-1.92 0-3.449.553-4.588 1.692-1.139 1.138-1.692 2.635-1.692 4.522v1.724c0 1.886.553 3.415 1.692 4.521 1.139 1.139 2.636 1.692 4.588 1.692h.228c1.334 0 2.44-.26 3.319-.78.878-.521 1.561-1.27 2.082-2.31l-2.733-1.53a3.17 3.17 0 0 1-.976 1.27c-.423.325-.976.487-1.692.487h-.228c-1.041 0-1.79-.325-2.278-.943-.488-.618-.715-1.431-.715-2.44V15.16c0-1.008.227-1.822.715-2.44.488-.618 1.237-.943 2.278-.943h.228c.716 0 1.301.163 1.724.488.423.325.749.78.976 1.334l2.864-1.367c-.423-1.008-1.107-1.854-2.018-2.44zm-13.308 0c-.91-.586-2.082-.879-3.546-.879h-.228c-1.92 0-3.449.553-4.588 1.692-1.139 1.138-1.692 2.635-1.692 4.522v1.724c0 1.886.553 3.415 1.692 4.521 1.139 1.139 2.636 1.692 4.588 1.692h.228c1.334 0 2.44-.26 3.319-.78.878-.521 1.561-1.27 2.082-2.31l-2.733-1.53a3.17 3.17 0 0 1-.976 1.27c-.423.325-.976.487-1.692.487h-.228c-1.041 0-1.79-.325-2.278-.943-.488-.618-.715-1.431-.715-2.44V15.16c0-1.008.227-1.822.715-2.44.488-.618 1.237-.943 2.278-.943h.228c.716 0 1.301.163 1.724.488.423.325.749.78.976 1.334l2.864-1.367c-.456-1.008-1.106-1.854-2.018-2.44zM38.557 8.783l2.246 6.962H36.28l2.277-6.962zM36.963 3.84l-6.28 18.672v.228h3.287l1.301-3.937h6.54l1.27 3.937h3.448v-.228L40.25 3.839h-3.286z"/>
        <path fill="#F05514" d="M13.438 22.771c-5.14 0-9.338-4.196-9.338-9.336 0-5.14 4.197-9.304 9.338-9.304 5.141 0 9.306 4.197 9.306 9.304 0 5.172-4.165 9.336-9.306 9.336zm13.438-9.369l-3.058-2.765 1.236-3.936-4.035-.878-.878-4.034-3.937 1.269L13.406 0 10.64 3.058 6.703 1.822l-.879 4.033-4.034.879 1.269 3.936L0 13.467l3.059 2.766-1.237 3.936 4.035.878.878 4.034 3.937-1.269 2.799 3.058 2.765-3.058 3.937 1.236.879-4.034 4.035-.91-1.27-3.937 3.06-2.765z"/>
        <path fill="#F05514" d="M7.549 7.58a8.328 8.328 0 0 1 11.779 0 8.323 8.323 0 0 1 0 11.775 8.328 8.328 0 0 1-11.78 0c-3.253-3.253-3.253-8.555 0-11.775"/>
    </g>
</svg>
